<svg height="511pt" viewBox="0 0 511.9983 511" width="511pt" xmlns="http://www.w3.org/2000/svg"><path d="m111.695312 416.078125c-2.007812 0-4.015624-.765625-5.546874-2.296875-3.0625-3.0625-3.0625-8.027344 0-11.089844l86.097656-86.097656c3.066406-3.0625 8.03125-3.0625 11.09375 0s3.0625 8.027344 0 11.089844l-86.101563 86.097656c-1.527343 1.53125-3.535156 2.296875-5.542969 2.296875zm0 0" fill="#4d87a1"/><path d="m22.035156 167.519531c-2.003906 0-4.011718-.765625-5.542968-2.296875-3.066407-3.0625-3.066407-8.027344 0-11.089844l97.632812-97.632812c4.460938-4.460938 6.914062-10.390625 6.914062-16.699219 0-6.308593-2.457031-12.238281-6.914062-16.699219-9.207031-9.207031-24.191406-9.207031-33.398438 0-9.207031 9.207032-9.207031 24.191407 0 33.398438 3.0625 3.0625 3.0625 8.027344 0 11.089844s-8.027343 3.0625-11.089843 0c-7.421875-7.421875-11.511719-17.292969-11.511719-27.789063 0-10.5 4.089844-20.367187 11.511719-27.789062 7.421875-7.425781 17.292969-11.511719 27.789062-11.511719 10.5 0 20.367188 4.085938 27.789063 11.511719 7.425781 7.421875 11.511718 17.289062 11.511718 27.789062 0 10.496094-4.085937 20.367188-11.511718 27.789063l-97.632813 97.632812c-1.53125 1.53125-3.539062 2.296875-5.546875 2.296875zm0 0" fill="#d3ddea"/><path d="m20.136719 314.113281c-2.007813 0-4.015625-.765625-5.546875-2.296875-3.0625-3.066406-3.0625-8.03125 0-11.09375l71.921875-71.917968c4.460937-4.460938 6.917969-10.394532 6.917969-16.699219 0-6.308594-2.460938-12.238281-6.917969-16.699219-4.460938-4.460938-10.390625-6.917969-16.699219-6.917969s-12.238281 2.457031-16.699219 6.917969c-9.207031 9.207031-9.207031 24.191406 0 33.398438 3.0625 3.0625 3.0625 8.027343 0 11.089843s-8.027343 3.0625-11.089843 0c-7.425782-7.421875-11.511719-17.292969-11.511719-27.789062 0-10.5 4.085937-20.367188 11.511719-27.792969 7.421874-7.421875 17.292968-11.507812 27.789062-11.507812s20.367188 4.085937 27.789062 11.507812c15.324219 15.324219 15.324219 40.257812 0 55.582031l-71.921874 71.921875c-1.53125 1.527344-3.539063 2.296875-5.542969 2.296875zm0 0" fill="#84abc1"/><path d="m111.40625 510.808594c-2.007812 0-4.015625-.765625-5.546875-2.300782-3.0625-3.0625-3.0625-8.027343 0-11.089843l104.074219-104.074219c7.421875-7.421875 17.292968-11.511719 27.789062-11.511719s20.367188 4.089844 27.789063 11.511719c7.425781 7.421875 11.511719 17.292969 11.511719 27.789062 0 10.5-4.085938 20.367188-11.511719 27.789063-7.421875 7.425781-17.292969 11.511719-27.789063 11.511719s-20.367187-4.085938-27.789062-11.511719c-3.0625-3.0625-3.0625-8.027344 0-11.089844s8.027344-3.0625 11.089844 0c9.207031 9.207031 24.191406 9.207031 33.398437 0 4.460937-4.460937 6.917969-10.390625 6.917969-16.699219 0-6.308593-2.457032-12.238281-6.917969-16.695312-4.460937-4.460938-10.390625-6.917969-16.699219-6.917969s-12.238281 2.457031-16.699218 6.917969l-104.074219 104.074219c-1.53125 1.53125-3.539063 2.296875-5.542969 2.296875zm0 0" fill="#d3ddea"/><path d="m343.351562 510.808594c-2.007812 0-4.015624-.765625-5.546874-2.300782-3.0625-3.0625-3.0625-8.027343 0-11.089843l104.074218-104.074219c7.421875-7.421875 17.292969-11.511719 27.789063-11.511719 10.496093 0 20.367187 4.089844 27.789062 11.511719 7.425781 7.421875 11.511719 17.292969 11.511719 27.789062 0 10.5-4.085938 20.367188-11.511719 27.789063-7.421875 7.425781-17.292969 11.511719-27.789062 11.511719-10.496094 0-20.367188-4.085938-27.789063-11.511719-3.0625-3.0625-3.0625-8.027344 0-11.089844s8.027344-3.0625 11.089844 0c9.210938 9.207031 24.191406 9.207031 33.398438 0 4.460937-4.460937 6.917968-10.390625 6.917968-16.699219 0-6.308593-2.457031-12.238281-6.917968-16.695312-4.460938-4.460938-10.390626-6.917969-16.699219-6.917969-6.308594 0-12.238281 2.457031-16.699219 6.917969l-104.074219 104.074219c-1.53125 1.53125-3.539062 2.296875-5.542969 2.296875zm0 0" fill="#d3ddea"/><path d="m511.996094 322.132812c-20.066406 2.316407-41.609375-4.710937-57.722656-20.824218-16.121094-16.125-23.148438-37.667969-20.828126-57.726563-20.066406 2.3125-41.609374-4.710937-57.726562-20.828125-16.121094-16.121094-23.144531-37.664062-20.824219-57.722656-20.066406 2.3125-41.609375-4.714844-57.726562-20.828125-16.121094-16.121094-23.148438-37.667969-20.828125-57.726563-20.066406 2.316407-41.609375-4.710937-57.722656-20.824218-16.121094-16.125-23.148438-37.667969-20.828126-57.726563-86.765624 86.765625-86.765624 227.441407 0 314.207031 86.765626 86.765626 227.441407 86.765626 314.210938 0zm0 0" fill="#84abc1"/><path d="m197.789062 322.132812c43.386719 43.386719 148.890626 8.214844 235.65625-78.550781-2.320312 20.058594 4.707032 41.605469 20.828126 57.726563 16.113281 16.113281 37.660156 23.140625 57.722656 20.824218-86.765625 86.769532-227.441406 86.769532-314.207032 0zm0 0" fill="#d3ddea"/><path d="m276.339844 86.476562c-2.320313 20.058594 4.707031 41.605469 20.828125 57.726563 16.113281 16.113281 37.660156 23.140625 57.726562 20.828125l-157.105469 157.101562c-43.378906-43.378906-8.214843-148.886718 78.550782-235.65625zm0 0" fill="#d3ddea"/><path d="m188.683594 312.464844-6.921875 6.917968c-5.1875 5.1875-5.191407 13.597657-.003907 18.785157s13.597657 5.1875 18.789063 0l6.917969-6.921875" fill="#84abc1"/><path d="m15.273438 453.820312c-15.464844-15.003906-19.1875-37.511718-11.160157-56.125 3.789063-8.78125 15.308594-10.898437 22.070313-4.132812 3.878906 3.878906 5.179687 9.757812 2.96875 14.777344-3.683594 8.363281-2.171875 18.484375 4.523437 25.414062 9.046875 9.351563 24.15625 9.109375 33.355469-.089844l41.457031-41.460937c5.3125-5.308594 13.925781-5.308594 19.238281 0 5.3125 5.3125 5.3125 13.925781 0 19.238281l-41.292968 41.289063c-19.527344 19.53125-51.332032 20.320312-71.160156 1.089843zm0 0" fill="#84abc1"/><path d="m19.46875 363.640625c-2.003906 0-4.011719-.765625-5.542969-2.296875-3.066406-3.0625-3.066406-8.027344 0-11.089844l73.199219-73.203125c3.0625-3.0625 8.027344-3.0625 11.089844 0 3.0625 3.066407 3.0625 8.03125 0 11.09375l-73.199219 73.199219c-1.53125 1.53125-3.539063 2.296875-5.546875 2.296875zm0 0" fill="#d3ddea"/><path d="m271.488281 500.628906c-2.007812 0-4.015625-.765625-5.546875-2.296875-3.0625-3.0625-3.0625-8.027343 0-11.089843l73.199219-73.199219c3.066406-3.0625 8.03125-3.0625 11.09375 0s3.0625 8.027343 0 11.089843l-73.199219 73.199219c-1.53125 1.53125-3.539062 2.296875-5.546875 2.296875zm0 0" fill="#84abc1"/></svg>