<svg height="512pt" viewBox="0 0 512 512" width="512pt" xmlns="http://www.w3.org/2000/svg"><path d="m256 409.359375c-4.328125 0-7.835938-3.507813-7.835938-7.835937v-158.824219c0-4.328125 3.507813-7.839844 7.835938-7.839844s7.835938 3.511719 7.835938 7.839844v158.824219c0 4.328124-3.507813 7.835937-7.835938 7.835937zm0 0" fill="#4d87a1"/><path d="m271.296875 56.707031v-41.398437c0-8.453125-6.84375-15.308594-15.296875-15.308594s-15.308594 6.855469-15.308594 15.308594v41.398437" fill="#84abc1"/><path d="m0 282.125c14.464844-18.234375 37.742188-30.0625 64-30.0625 26.269531 0 49.546875 11.828125 64 30.0625 14.464844-18.234375 37.742188-30.0625 64-30.0625 26.269531 0 49.546875 11.828125 64 30.0625 14.464844-18.234375 37.742188-30.0625 64-30.0625 26.269531 0 49.546875 11.828125 64 30.0625 14.464844-18.234375 37.742188-30.0625 64-30.0625 26.269531 0 49.546875 11.828125 64 30.0625 0-141.382812-114.613281-256-256-256s-256 114.617188-256 256zm0 0" fill="#ff7694"/><path d="m256 26.125c-70.699219 0-128 114.613281-128 256-14.449219-18.234375-37.730469-30.0625-64-30.0625-26.257812 0-49.539062 11.828125-64 30.0625 0-141.386719 114.613281-256 256-256zm0 0" fill="#eac749"/><path d="m384 282.125c-14.449219-18.234375-37.730469-30.0625-64-30.0625-26.257812 0-49.539062 11.828125-64 30.0625v-256c70.6875 0 128 114.613281 128 256zm0 0" fill="#ffee8c"/><path d="m214.582031 511.992188c-24.824219.378906-46.195312-14.929688-54.820312-36.632813-4.070313-10.242187 3.59375-21.351563 14.613281-21.351563 6.320312 0 12.171875 3.734376 14.457031 9.621094 3.816407 9.816406 13.289063 16.832032 24.394531 17.019532 14.988282.253906 27.097657-12.257813 27.097657-27.246094v-67.558594c0-8.65625 7.019531-15.671875 15.675781-15.671875s15.671875 7.015625 15.671875 15.671875v67.285156c0 31.824219-25.269531 58.378906-57.089844 58.863282zm0 0" fill="#84abc1"/></svg>