<svg height="512pt" viewBox="0 -128 512 512" width="512pt" xmlns="http://www.w3.org/2000/svg"><path d="m512 256h-201.789062c0-29.9375-24.273438-54.210938-54.210938-54.210938-29.945312 0-54.21875 24.273438-54.21875 54.210938h-201.78125c0-141.15625 114.835938-256 256-256 141.15625 0 256 114.84375 256 256zm0 0" fill="#84abc1"/><path d="m461.550781 256h-151.339843c0-29.9375-24.273438-54.210938-54.210938-54.210938-29.945312 0-54.21875 24.273438-54.21875 54.210938h-151.332031c0-113.339844 92.199219-205.550781 205.550781-205.550781 113.339844 0 205.550781 92.210937 205.550781 205.550781zm0 0" fill="#6dd198"/><path d="m411.105469 256h-100.894531c0-29.9375-24.273438-54.210938-54.210938-54.210938-29.945312 0-54.21875 24.273438-54.21875 54.210938h-100.886719c0-85.523438 69.582031-155.105469 155.105469-155.105469s155.105469 69.582031 155.105469 155.105469zm0 0" fill="#ffee8c"/><path d="m360.65625 256h-50.445312c0-29.9375-24.273438-54.210938-54.210938-54.210938-29.945312 0-54.21875 24.273438-54.21875 54.210938h-50.4375c0-57.710938 46.945312-104.65625 104.65625-104.65625s104.65625 46.945312 104.65625 104.65625zm0 0" fill="#ff7694"/></svg>